<svg width="720" height="520" viewBox="0 0 720 520" xmlns="http://www.w3.org/2000/svg" role="img" aria-label="FlyingDraw - Whiteboard for AI Agents - @flyingdraw">
  <defs>
    <filter id="sk" x="-20%" y="-20%" width="140%" height="140%">
      <feTurbulence type="fractalNoise" baseFrequency="0.013 0.017" numOctaves="2" seed="4" result="n"/>
      <feDisplacementMap in="SourceGraphic" in2="n" scale="2.2" xChannelSelector="R" yChannelSelector="G"/>
    </filter>
  </defs>
  <rect width="720" height="520" rx="24" fill="#232334"/>
  <g transform="translate(360.0,150) scale(1.25)" filter="url(#sk)" fill="none" stroke-linecap="round" stroke-linejoin="round">
    <path d="M-80 -34 C -42 2, -72 38, -28 20" stroke="#f7f7fb" stroke-width="3.4" stroke-dasharray="1.5 12" opacity="0.7"/>
    <g stroke="#f7f7fb" stroke-width="6">
      <path d="M40 2 L-76 -60 L-42 54 Z"/>
      <path d="M40 2 L-42 54 L-8 -6 Z" fill="#3a3a52"/>
      <path d="M-8 -6 L-76 -60"/>
    </g>
  </g>
  <g filter="url(#sk)"><path d="M 81.87 331.87 Q 78.90 329.78 78.35 328.35 Q 78.13 327.80 78.13 327.14 Q 77.47 325.60 77.47 324.28 L 77.47 274.89 L 73.95 270.05 Q 73.40 265.32 78.79 262.79 Q 83.63 261.03 92.76 259.16 Q 101.89 257.29 105.96 256.08 Q 112.12 253.55 121.25 252.67 Q 121.58 252.78 123.23 252.62 Q 124.88 252.45 127.30 252.23 Q 129.72 252.01 131.37 252.01 Q 134.01 252.01 135.22 252.67 Q 137.75 252.67 139.95 255.09 Q 142.15 257.51 141.49 260.15 Q 141.93 261.47 141.16 262.74 Q 140.39 264.00 138.96 264.55 Q 137.64 264.88 136.32 263.89 L 135.11 263.01 Q 134.45 262.46 133.79 262.35 Q 118.94 260.81 96.17 268.62 Q 95.40 269.06 93.14 269.88 Q 90.89 270.71 90.67 270.71 Q 89.68 271.04 88.58 272.14 L 87.15 273.57 L 87.15 280.50 Q 87.15 288.97 87.92 293.04 Q 88.91 293.04 89.68 293.15 L 95.18 293.59 Q 95.95 293.70 96.94 293.70 Q 100.57 293.37 106.62 291.72 Q 112.67 290.07 116.52 289.63 Q 124.11 288.75 125.32 288.75 Q 128.07 288.75 130.27 289.52 Q 132.25 290.62 132.47 292.49 Q 132.69 294.36 131.04 295.79 Q 129.39 296.67 124.05 297.50 Q 118.72 298.32 117.84 298.54 Q 114.54 299.75 107.11 301.62 Q 99.69 303.49 97.60 304.15 Q 97.27 304.15 95.12 305.08 Q 92.98 306.02 92.76 306.24 L 91.99 306.24 L 88.58 305.58 L 87.92 306.24 Q 87.15 316.69 88.58 321.53 L 88.58 322.30 Q 88.80 328.90 85.83 330.44 Q 84.62 331.43 81.87 331.87 Z M 156.90 332.20 Q 154.37 332.20 152.94 331.32 Q 151.40 329.67 150.46 327.80 Q 149.53 325.93 149.09 323.40 Q 148.65 320.87 148.54 319.50 Q 148.43 318.12 148.37 314.71 Q 148.32 311.30 148.32 310.53 Q 148.43 304.04 149.09 292.99 Q 149.75 281.93 149.97 277.20 Q 149.86 271.59 150.52 260.20 Q 151.18 248.82 150.85 242.11 Q 151.73 239.25 154.15 239.25 Q 157.23 239.25 159.21 242.77 Q 159.21 242.99 159.65 243.87 Q 160.09 244.75 160.20 245.41 L 160.64 253.33 Q 160.75 254.54 160.75 255.97 Q 160.42 262.79 159.65 273.02 Q 158.88 283.25 158.44 291.50 Q 158.00 299.75 158.00 307.78 Q 158.11 309.76 158.33 313.61 Q 158.55 317.46 158.71 319.27 Q 158.88 321.09 159.48 323.73 Q 160.09 326.37 161.30 328.57 Q 161.41 330.11 160.53 331.32 Q 159.10 332.20 156.90 332.20 Z M 188.26 370.26 Q 186.17 366.08 186.17 362.45 L 186.17 361.13 Q 188.59 355.96 194.97 340.23 Q 196.18 337.04 199.59 328.95 Q 203.00 320.87 204.54 317.02 Q 199.48 323.29 195.57 326.48 Q 191.67 329.67 188.04 329.67 Q 185.29 329.67 182.76 327.47 Q 177.70 325.05 174.62 314.93 Q 173.85 311.74 173.85 308.17 Q 173.85 304.59 174.23 301.84 Q 174.62 299.09 175.22 295.07 Q 175.83 291.06 176.05 288.42 Q 177.04 284.79 181.44 284.79 Q 183.31 284.79 185.07 285.67 Q 187.82 287.54 187.27 290.18 Q 187.16 290.95 185.07 294.03 Q 183.31 299.42 183.75 310.09 Q 183.86 313.50 185.78 315.98 Q 187.71 318.45 190.02 319.33 Q 191.56 319.22 192.88 318.62 Q 194.20 318.01 195.63 316.58 Q 197.06 315.15 197.88 314.21 Q 198.71 313.28 200.36 311.08 Q 202.01 308.88 202.67 308.00 Q 204.43 304.81 207.62 300.41 Q 210.81 296.01 211.58 293.37 Q 211.69 292.82 211.96 291.67 Q 212.24 290.51 212.46 289.80 Q 212.68 289.08 213.17 288.31 Q 213.67 287.54 214.33 287.10 Q 216.97 285.67 219.61 285.67 Q 222.69 285.67 224.78 287.76 Q 227.09 291.06 222.69 297.55 L 215.76 310.09 Q 215.32 310.64 214.49 312.35 Q 213.67 314.05 213.67 314.27 Q 213.23 315.48 211.14 321.69 Q 209.05 327.91 208.83 328.90 Q 207.51 332.53 204.04 342.10 Q 200.58 351.67 198.38 357.28 Q 197.94 358.16 197.72 358.76 Q 197.50 359.37 197.44 359.92 Q 197.39 360.47 197.17 362.18 Q 196.95 363.88 196.62 366.08 Q 196.40 369.05 194.53 370.26 Q 192.88 370.92 191.12 370.92 Q 189.36 370.92 188.26 370.26 Z M 243.49 280.50 Q 241.84 280.83 240.08 280.28 Q 238.32 279.73 235.57 278.08 Q 232.82 276.43 232.49 276.32 Q 230.62 275.11 230.01 272.96 Q 229.41 270.82 230.40 268.73 Q 231.17 266.75 233.04 265.65 Q 234.91 264.55 236.89 264.77 Q 237.55 264.88 237.88 264.72 Q 238.21 264.55 238.76 264.88 Q 239.31 265.21 239.58 265.26 Q 239.86 265.32 240.35 265.81 Q 240.85 266.31 241.07 266.48 Q 241.29 266.64 241.73 267.25 Q 242.17 267.85 242.33 268.07 Q 242.50 268.29 242.94 268.84 Q 243.38 269.39 243.49 269.61 Q 243.93 270.71 247.67 274.45 Q 248.33 275.33 248.22 277.20 Q 248.11 279.07 247.12 279.95 L 243.49 280.50 Z M 244.37 330.66 Q 241.40 331.21 239.53 329.34 Q 237.66 326.04 237.44 324.50 Q 237.22 323.18 236.78 318.73 Q 236.34 314.27 235.90 309.38 Q 235.46 304.48 235.35 303.60 Q 235.13 300.63 235.35 297.33 Q 237.00 294.47 240.85 295.24 Q 242.28 295.90 243.71 299.42 Q 243.71 301.73 244.09 304.26 Q 244.48 306.79 244.86 308.55 Q 245.25 310.31 246.02 313.17 Q 246.79 316.03 247.12 317.57 Q 247.12 318.45 246.95 320.38 Q 246.79 322.30 246.62 324.06 Q 246.46 325.82 246.46 325.93 Q 246.35 326.26 246.18 327.14 Q 246.02 328.02 245.85 328.57 Q 245.69 329.12 245.30 329.73 Q 244.92 330.33 244.37 330.66 Z M 303.45 330.33 Q 302.35 330.33 302.13 329.23 Q 301.91 328.90 300.64 326.75 Q 299.38 324.61 298.61 323.73 Q 296.52 316.47 295.86 309.76 Q 295.53 308.99 294.92 306.40 Q 294.32 303.82 293.77 302.83 Q 293.55 301.95 292.50 300.90 Q 291.46 299.86 290.80 299.86 Q 289.92 299.86 289.59 300.08 Q 282.33 306.24 276.39 315.37 Q 276.17 315.81 273.58 320.15 Q 271.00 324.50 270.12 326.48 Q 268.91 328.46 266.60 327.91 L 261.76 322.96 L 261.76 319.55 Q 262.31 316.69 262.97 308.44 Q 263.63 300.19 263.85 298.65 Q 263.85 298.10 263.30 294.80 Q 263.19 294.36 263.19 293.37 Q 263.19 291.61 264.34 290.51 Q 265.50 289.41 267.26 289.52 Q 270.78 289.52 272.21 291.72 Q 272.98 294.69 272.98 299.42 Q 272.98 300.96 272.76 303.16 Q 272.54 305.36 272.54 305.47 Q 273.09 305.03 274.63 303.11 Q 276.17 301.18 277.82 299.09 Q 279.47 297.00 279.80 296.56 Q 280.46 295.79 281.72 294.03 Q 282.99 292.27 284.03 291.17 Q 285.08 290.07 286.62 288.86 Q 288.93 286.99 292.78 286.77 Q 293.99 286.33 295.25 286.94 Q 296.52 287.54 297.95 289.36 Q 299.38 291.17 299.76 291.83 Q 300.15 292.49 301.47 294.58 Q 304.88 302.50 304.88 311.85 L 306.97 320.87 Q 306.97 321.20 307.69 323.07 Q 308.40 324.94 308.40 325.05 Q 308.62 328.02 306.97 329.23 Q 306.64 329.34 305.38 329.83 Q 304.11 330.33 303.45 330.33 Z M 344.82 371.25 Q 339.32 369.05 331.51 362.89 Q 329.09 361.68 327.82 360.91 Q 326.56 360.14 325.13 358.60 Q 323.70 357.06 323.15 355.19 Q 322.93 350.57 325.24 348.92 Q 327.77 346.94 330.30 346.94 Q 332.28 346.94 333.60 348.26 Q 334.15 348.81 336.46 351.62 Q 338.77 354.42 340.53 355.74 Q 342.29 357.06 344.38 357.39 Q 344.71 357.39 344.82 357.28 Q 348.12 356.07 349.49 353.26 Q 350.87 350.46 351.42 346.17 Q 351.97 341.88 352.63 340.23 Q 352.85 338.14 353.12 333.63 Q 353.40 329.12 353.51 327.03 Q 347.24 328.68 341.30 328.68 Q 335.91 328.68 330.19 327.36 Q 325.68 324.72 322.43 320.70 Q 319.19 316.69 319.08 311.96 Q 319.52 306.02 324.41 300.25 Q 329.31 294.47 334.59 291.83 Q 338.66 288.42 344.71 288.42 Q 352.52 288.42 356.15 293.81 Q 356.15 294.36 356.04 295.68 Q 356.04 300.96 354.83 300.96 Q 354.28 300.96 353.40 300.08 Q 352.08 299.31 346.25 298.65 Q 343.83 298.54 341.19 300.19 Q 338.55 301.84 336.79 303.76 Q 335.03 305.69 332.50 308.77 Q 331.95 309.54 331.62 309.87 Q 331.07 310.42 330.85 311.08 Q 330.63 311.74 330.85 312.40 Q 331.07 313.06 331.34 313.61 Q 331.62 314.16 332.22 314.76 Q 332.83 315.37 333.21 315.75 Q 333.60 316.14 334.26 316.75 Q 334.92 317.35 335.14 317.57 Q 338.44 318.89 342.40 318.89 Q 345.92 318.89 349.60 317.74 Q 353.29 316.58 356.26 313.94 Q 359.23 311.30 359.45 307.78 Q 360.44 294.69 365.06 293.15 L 365.39 293.15 Q 368.36 294.03 371.11 298.32 L 371.44 298.87 L 371.33 298.76 Q 371.55 303.60 368.41 312.24 Q 365.28 320.87 364.73 324.39 Q 361.21 336.05 359.56 349.25 Q 359.23 352.88 357.96 355.80 Q 356.70 358.71 353.84 363.55 Q 350.54 368.50 348.45 369.93 Q 346.80 370.92 344.82 371.25 Z M 384.54 333.74 Q 381.02 333.96 379.15 329.45 Q 377.83 326.59 380.58 324.06 Q 381.35 323.51 383.00 323.24 Q 384.65 322.96 387.07 322.80 Q 389.49 322.63 389.71 322.63 L 392.79 322.52 Q 395.21 322.63 396.09 322.85 L 398.51 322.52 L 401.59 322.08 Q 404.67 321.64 405.33 321.64 L 405.22 320.98 Q 403.35 320.98 402.47 320.32 Q 400.71 319.11 399.50 316.75 Q 398.29 314.38 397.90 313.06 Q 397.52 311.74 396.91 307.83 Q 396.31 303.93 396.31 303.71 L 396.31 302.61 Q 396.09 298.21 396.58 287.49 Q 397.08 276.76 396.53 272.36 Q 396.42 271.26 398.01 270.11 Q 399.61 268.95 399.72 268.73 L 399.61 268.62 L 399.28 268.18 Q 390.81 265.54 386.35 263.34 Q 381.90 261.14 380.36 259.22 Q 378.82 257.29 378.38 254.43 Q 379.92 251.13 382.89 251.13 Q 384.10 251.13 385.31 251.57 L 387.07 252.56 Q 389.38 253.00 389.71 253.11 Q 404.78 257.40 419.69 264.94 Q 434.59 272.47 443.61 281.93 Q 451.42 291.06 453.73 295.35 Q 457.69 302.50 456.37 308.88 Q 455.71 310.64 454.94 312.07 Q 454.17 313.50 453.01 314.82 Q 451.86 316.14 451.03 317.07 Q 450.21 318.01 448.56 319.06 Q 446.91 320.10 446.14 320.65 Q 445.37 321.20 443.22 322.13 Q 441.08 323.07 440.37 323.40 Q 439.65 323.73 437.06 324.77 Q 434.48 325.82 433.93 326.04 Q 428.43 327.80 422.88 328.79 Q 417.32 329.78 409.56 330.66 Q 401.81 331.54 397.96 332.09 L 391.80 332.97 L 385.97 333.74 L 384.54 333.74 Z M 412.15 320.10 Q 429.75 318.89 441.08 311.96 Q 441.52 311.63 443.39 309.70 Q 445.26 307.78 445.81 307.01 Q 446.47 306.35 446.47 305.58 L 446.36 303.16 Q 445.70 299.42 442.95 295.30 Q 440.20 291.17 438.11 288.97 Q 436.02 286.77 431.73 282.81 Q 416.88 272.69 404.67 269.50 L 403.90 269.50 Q 404.45 270.05 404.89 270.82 Q 406.21 274.01 406.32 277.64 Q 406.43 281.27 405.99 284.68 Q 406.21 294.69 406.76 302.06 Q 408.96 310.20 409.73 311.85 Q 410.28 314.82 409.95 317.35 Q 409.95 318.34 409.29 318.78 L 407.97 320.21 L 412.15 320.10 Z M 479.04 297.88 Q 481.90 292.16 485.53 288.75 Q 489.60 284.68 495.10 284.13 Q 500.49 283.47 505.33 285.45 Q 507.42 287.54 507.42 288.86 Q 507.42 291.39 506.98 291.83 Q 504.89 293.92 503.46 293.92 Q 503.35 293.92 501.87 293.70 Q 500.38 293.48 499.17 293.37 L 496.64 293.37 Q 491.91 294.03 489.16 297.22 L 486.74 300.30 Q 483.99 304.15 483.33 305.91 Q 483.11 306.46 482.18 308.55 Q 481.24 310.64 481.13 311.74 Q 480.91 318.23 481.90 321.53 Q 482.45 322.52 482.56 323.68 Q 482.67 324.83 482.62 325.55 Q 482.56 326.26 481.95 327.63 Q 481.35 329.01 481.07 329.45 Q 480.80 329.89 479.92 331.43 Q 478.93 332.53 477.83 332.53 Q 475.74 332.53 473.81 330.44 Q 471.89 328.35 470.90 325.38 L 470.79 312.73 Q 470.57 308.44 469.03 292.93 Q 468.59 288.31 469.03 285.23 Q 470.24 282.81 473.65 282.59 Q 475.19 282.37 476.29 283.14 Q 477.39 283.91 477.50 285.56 Q 477.61 286.00 477.88 286.55 Q 478.16 287.10 478.16 287.43 Q 478.16 289.85 478.49 297.44 L 479.04 297.88 Z M 530.97 330.77 Q 527.56 331.21 523.93 329.83 Q 520.30 328.46 518.21 325.93 Q 517.22 324.39 516.84 323.79 Q 516.45 323.18 515.68 321.81 Q 514.91 320.43 514.63 319.55 Q 514.36 318.67 514.03 317.46 Q 513.70 316.25 513.70 315.10 Q 513.70 313.94 514.03 312.73 Q 514.14 308.99 516.50 305.14 Q 518.87 301.29 521.29 298.98 Q 523.71 296.67 527.56 293.48 Q 528.33 292.93 528.66 292.60 Q 533.28 288.86 541.20 288.86 Q 542.85 288.86 551.65 289.74 Q 551.87 289.96 553.13 290.51 Q 554.40 291.06 554.95 291.67 Q 555.50 292.27 555.06 293.26 L 556.49 294.69 Q 558.91 296.12 559.57 297.44 Q 560.56 299.09 563.20 307.78 Q 563.42 308.66 565.35 313.72 Q 567.27 318.78 567.49 319.77 Q 570.24 324.83 570.35 326.48 L 570.90 328.24 Q 570.79 328.79 569.91 329.45 Q 569.03 330.11 568.92 330.22 Q 567.05 330.88 563.20 329.56 Q 562.43 329.23 561.82 328.74 Q 561.22 328.24 560.94 327.86 Q 560.67 327.47 559.95 326.37 Q 559.24 325.27 558.91 324.72 L 558.47 324.17 Q 557.26 321.31 554.73 314.05 Q 550.33 321.53 544.06 326.20 Q 537.79 330.88 530.97 330.77 Z M 530.42 320.54 Q 532.29 320.54 535.59 319.66 Q 540.98 317.68 545.38 312.73 Q 549.67 306.79 550.22 302.28 Q 550.22 301.95 550.66 299.69 Q 551.10 297.44 550.99 296.56 Q 548.79 297.11 544.66 297.38 Q 540.54 297.66 538.34 298.10 Q 535.48 298.54 532.51 300.80 Q 529.54 303.05 528.00 305.03 Q 526.46 307.01 523.82 310.64 Q 521.95 312.95 524.48 317.57 Q 526.46 320.54 530.42 320.54 Z M 595.77 331.65 Q 595.44 331.65 594.39 331.70 Q 593.35 331.76 592.75 331.76 Q 592.14 331.76 591.37 331.54 Q 590.60 331.32 590.05 330.99 Q 586.64 329.01 584.11 322.74 Q 583.01 320.10 582.51 317.13 Q 582.02 314.16 581.63 310.64 Q 581.25 307.12 580.81 304.92 L 580.37 301.84 Q 580.37 301.73 579.82 300.13 Q 579.27 298.54 579.27 298.32 Q 579.27 297.66 579.11 296.39 Q 578.94 295.13 578.88 294.36 Q 578.83 293.59 578.83 292.65 Q 578.83 291.72 579.00 291.06 Q 579.16 290.40 579.49 290.07 Q 581.47 288.09 585.65 287.21 Q 586.64 287.10 587.58 287.54 Q 588.51 287.98 589.83 289.25 Q 591.15 290.51 591.37 290.73 L 591.37 299.97 L 591.37 310.20 Q 591.59 313.50 592.47 318.56 Q 593.02 319.33 593.57 319.33 Q 594.67 318.67 595.72 317.19 Q 596.76 315.70 597.91 313.72 Q 599.07 311.74 599.73 310.86 L 600.28 309.54 Q 600.83 307.56 602.15 304.75 Q 603.47 301.95 604.24 301.18 Q 605.89 299.09 611.50 298.32 Q 611.83 298.32 612.11 298.87 Q 612.38 299.42 612.65 300.52 Q 612.93 301.62 613.10 302.61 Q 613.26 303.60 613.53 305.14 Q 613.81 306.68 613.92 307.45 Q 616.01 312.29 616.23 314.38 Q 616.45 315.92 617.88 318.34 L 619.97 316.69 Q 622.50 314.27 624.81 310.92 Q 627.12 307.56 629.87 302.94 Q 632.62 298.32 633.94 296.23 Q 634.38 295.13 637.79 289.30 Q 637.90 289.08 642.52 283.80 Q 643.18 283.14 644.06 283.03 Q 644.94 282.92 646.21 283.03 Q 647.47 283.14 648.02 283.03 Q 650.88 284.90 649.67 290.07 Q 641.75 302.61 635.92 310.86 Q 632.07 318.23 625.14 326.04 Q 623.71 327.69 621.12 328.68 Q 618.54 329.67 616.23 329.67 Q 610.07 325.27 606.99 316.14 Q 600.50 327.69 595.77 331.65 Z" fill="#f7f7fb"/></g>
  <g filter="url(#sk)"><path d="M 117.39 420.46 Q 116.67 420.68 115.91 419.51 L 115.57 419.05 Q 115.38 418.67 115.38 417.95 L 115.46 417.42 L 115.61 416.50 Q 115.34 414.91 115.15 411.03 Q 115.15 410.20 114.92 408.45 Q 114.66 406.85 114.66 405.71 Q 114.54 405.26 113.94 403.77 L 113.94 400.05 Q 114.13 399.25 114.83 398.55 Q 115.53 397.85 116.29 398.04 Q 116.90 397.66 118.12 399.14 L 118.12 409.40 Q 118.38 409.89 118.53 411.94 Q 118.61 413.54 118.84 414.19 Q 118.99 414.98 119.18 415.25 L 119.29 415.29 Q 119.56 415.33 119.98 414.91 L 120.17 414.53 Q 120.28 414.30 121.23 412.89 Q 123.09 410.20 123.32 409.44 Q 123.78 408.52 124.01 407.61 Q 124.35 406.47 124.73 405.86 Q 125.11 405.18 126.02 405.18 Q 126.70 405.18 127.05 405.64 L 127.54 406.09 Q 128.00 406.66 128.00 407.99 L 128.00 408.64 Q 127.73 410.16 127.73 413.05 L 127.73 414.87 Q 128.03 415.74 128.41 415.74 Q 129.02 415.71 129.59 414.76 Q 130.35 412.93 131.15 411.41 Q 132.37 409.25 132.94 407.73 Q 133.43 405.71 134.84 402.67 L 135.82 400.51 L 136.47 398.15 L 136.43 398.04 Q 136.47 398.04 136.62 397.28 Q 136.62 397.24 136.64 397.11 Q 136.66 396.97 136.70 396.93 L 137.27 396.21 Q 137.88 395.68 138.75 395.68 Q 139.55 395.68 140.19 396.21 Q 140.50 396.40 140.65 397.24 Q 140.65 397.54 140.76 397.88 Q 140.38 399.18 139.51 400.66 Q 138.41 402.52 138.07 403.70 Q 137.34 405.22 136.36 407.99 Q 135.29 410.69 135.14 411.03 Q 134.95 411.37 134.27 412.82 Q 133.58 414.26 133.20 415.02 Q 132.82 415.78 132.19 416.88 Q 131.57 417.99 131.00 418.75 Q 130.47 419.39 129.25 420.27 Q 129.06 420.42 128.22 420.11 Q 127.96 420.00 127.73 419.92 Q 126.93 419.73 126.02 418.67 L 125.68 418.33 Q 124.96 417.45 124.69 415.55 L 124.50 414.38 Q 124.50 414.22 124.33 414.07 Q 124.16 413.92 124.01 413.96 L 121.84 416.81 Q 121.04 417.91 120.09 419.05 Q 119.52 419.62 119.27 419.85 Q 119.03 420.08 118.48 420.30 Q 117.93 420.53 117.39 420.46 Z M 160.95 420.84 Q 160.64 420.84 159.92 420.57 Q 158.78 419.16 157.95 416.98 Q 157.11 414.79 157.03 413.88 Q 156.43 411.30 155.25 410.96 Q 154.18 411.41 153.21 412.21 Q 152.25 413.01 151.81 413.54 Q 151.37 414.07 150.36 415.48 Q 149.36 416.88 149.09 417.23 Q 148.45 418.97 147.19 420.08 Q 146.66 420.34 146.24 420.34 Q 145.37 420.34 144.42 418.78 Q 144.30 418.67 144.30 418.67 Q 144.30 418.56 144.28 418.16 Q 144.27 417.76 144.27 417.51 Q 144.27 417.26 144.32 416.96 Q 144.38 416.66 144.53 416.50 Q 144.68 415.25 144.74 413.81 Q 144.80 412.36 144.76 411.39 Q 144.72 410.42 144.65 408.68 Q 144.57 406.93 144.53 406.21 Q 144.61 404.12 144.32 399.31 Q 144.04 394.50 144.15 392.30 L 144.23 390.32 Q 144.19 390.09 144.27 389.92 Q 144.34 389.75 144.44 389.69 Q 144.53 389.64 144.72 389.60 Q 144.91 389.56 145.04 389.58 Q 145.18 389.60 145.41 389.62 Q 145.63 389.64 145.67 389.64 Q 145.71 389.68 146.01 389.98 Q 146.32 390.28 146.56 390.57 Q 146.81 390.85 146.85 391.08 Q 147.88 395.95 147.69 405.22 Q 147.69 407.61 147.84 409.47 Q 147.99 411.34 147.80 413.43 Q 151.26 409.13 154.41 407.16 Q 155.10 406.89 155.93 406.89 Q 157.19 406.89 157.98 407.84 Q 159.28 409.25 159.88 410.94 Q 160.49 412.63 160.87 415.06 Q 161.97 418.44 161.86 420.08 Q 161.86 420.11 161.78 420.27 Q 161.71 420.42 161.67 420.48 Q 161.63 420.53 161.54 420.65 Q 161.44 420.76 161.29 420.80 Q 161.14 420.84 160.95 420.84 Z M 169.54 402.90 Q 168.97 403.01 168.36 402.82 Q 167.76 402.63 166.81 402.06 Q 165.86 401.49 165.74 401.46 Q 165.10 401.04 164.89 400.30 Q 164.68 399.56 165.02 398.83 Q 165.29 398.15 165.93 397.77 Q 166.58 397.39 167.26 397.47 Q 167.49 397.50 167.60 397.45 Q 167.72 397.39 167.91 397.50 Q 168.10 397.62 168.19 397.64 Q 168.29 397.66 168.46 397.83 Q 168.63 398.00 168.71 398.06 Q 168.78 398.11 168.93 398.32 Q 169.09 398.53 169.14 398.61 Q 169.20 398.68 169.35 398.87 Q 169.50 399.06 169.54 399.14 Q 169.69 399.52 170.99 400.81 Q 171.21 401.11 171.18 401.76 Q 171.14 402.41 170.80 402.71 L 169.54 402.90 Z M 169.85 420.23 Q 168.82 420.42 168.17 419.77 Q 167.53 418.63 167.45 418.10 Q 167.38 417.64 167.22 416.11 Q 167.07 414.57 166.92 412.88 Q 166.77 411.18 166.73 410.88 Q 166.65 409.85 166.73 408.71 Q 167.30 407.73 168.63 407.99 Q 169.12 408.22 169.62 409.44 Q 169.62 410.23 169.75 411.11 Q 169.88 411.98 170.02 412.59 Q 170.15 413.20 170.42 414.19 Q 170.68 415.17 170.80 415.71 Q 170.80 416.01 170.74 416.68 Q 170.68 417.34 170.62 417.95 Q 170.57 418.56 170.57 418.59 Q 170.53 418.71 170.47 419.01 Q 170.42 419.32 170.36 419.51 Q 170.30 419.70 170.17 419.90 Q 170.04 420.11 169.85 420.23 Z M 184.37 422.17 Q 182.62 422.09 181.78 421.03 Q 181.67 420.80 181.10 419.83 Q 180.53 418.86 180.30 418.12 Q 180.07 417.38 180.19 416.54 Q 179.73 411.83 179.84 409.74 Q 179.92 408.94 179.73 407.38 Q 179.50 406.51 179.31 406.36 Q 178.21 406.47 177.68 406.81 Q 177.34 406.81 176.69 407.08 Q 176.05 407.35 175.59 407.27 Q 175.32 407.16 175.06 406.93 Q 174.79 406.70 174.51 406.38 Q 174.22 406.05 174.03 405.90 Q 173.88 405.52 173.92 404.84 Q 173.96 404.15 174.18 403.81 L 175.44 402.71 Q 177.15 402.67 179.12 402.33 L 179.39 402.03 L 179.39 395.03 Q 180.26 394.08 181.56 394.35 Q 182.58 395.15 182.69 396.33 Q 182.81 396.63 182.89 398.78 Q 182.96 400.92 183.23 401.19 L 183.95 401.42 Q 184.71 401.34 185.89 401.13 Q 187.06 400.92 187.60 400.89 Q 188.13 400.85 189.53 400.92 L 191.28 401.00 Q 192.92 401.23 192.50 402.90 Q 191.85 403.55 191.51 403.62 Q 190.64 403.70 189.73 403.85 Q 188.81 404.00 187.46 404.32 Q 186.12 404.65 185.66 404.72 Q 184.78 404.72 183.34 405.26 L 183.15 405.52 Q 183.15 406.09 183.08 406.87 Q 183.00 407.65 183.02 408.16 Q 183.04 408.68 183.23 409.28 Q 183.23 415.93 183.91 417.57 Q 184.52 418.14 184.96 418.25 Q 185.39 418.37 186.15 418.18 Q 186.31 418.14 186.61 418.06 Q 186.91 417.99 187.03 417.97 Q 187.14 417.95 187.37 417.87 Q 187.60 417.80 187.69 417.76 Q 187.79 417.72 187.96 417.62 Q 188.13 417.53 188.22 417.42 Q 188.32 417.30 188.47 417.15 Q 188.62 417.00 188.76 416.81 Q 188.89 416.62 189.04 416.37 Q 189.19 416.12 189.38 415.82 Q 189.34 415.63 189.50 414.91 Q 189.65 414.19 189.73 414.00 Q 190.14 412.82 191.25 412.86 Q 191.78 412.78 192.04 413.05 Q 192.31 413.31 192.54 414.00 L 192.73 414.64 Q 192.46 416.50 192.16 416.96 Q 191.40 418.48 191.00 419.05 Q 190.60 419.62 189.57 420.25 Q 188.55 420.87 186.42 421.56 Q 186.31 421.60 185.55 421.88 Q 184.78 422.17 184.37 422.17 Z M 196.88 416.69 Q 196.38 414.68 197.08 412.72 Q 197.79 410.77 199.27 408.52 Q 201.66 405.41 204.59 404.46 L 205.20 404.34 Q 206.07 404.19 206.57 404.23 Q 208.69 404.31 210.25 405.52 Q 211.81 406.74 211.92 408.83 Q 211.96 410.84 210.40 412.55 Q 208.85 414.26 206.98 414.41 Q 206.30 414.68 205.50 414.68 Q 203.56 414.68 201.47 413.58 L 200.33 413.01 Q 199.84 414.00 199.84 414.53 Q 200.26 416.66 202.14 418.12 Q 204.02 419.58 206.19 419.43 Q 207.48 419.58 209.64 418.90 L 210.75 418.59 Q 211.89 418.14 213.90 417.99 Q 214.81 417.87 214.93 418.71 L 214.93 420.00 Q 213.63 421.41 211.85 421.52 L 210.90 421.79 Q 207.82 422.66 206.38 422.58 Q 203.34 422.77 200.79 421.18 Q 198.17 419.81 196.88 416.69 Z M 201.63 410.88 Q 202.54 411.18 202.73 411.18 Q 203.03 411.34 203.34 411.45 Q 203.64 411.56 204.04 411.60 Q 204.44 411.64 204.63 411.64 Q 204.82 411.64 205.37 411.64 Q 205.92 411.64 206.00 411.64 Q 206.83 411.49 207.72 410.79 Q 208.62 410.08 208.77 409.32 Q 209.11 408.14 206.98 407.46 L 206.30 407.23 Q 205.54 407.23 204.68 407.76 Q 203.83 408.30 203.45 408.66 Q 203.07 409.02 202.20 409.93 L 201.78 410.61 L 201.63 410.88 Z M 226.41 420.46 Q 224.32 420.65 221.58 419.05 Q 218.73 417.26 218.35 413.73 Q 218.28 410.54 218.58 408.79 L 218.85 405.56 Q 218.92 404.50 219.34 399.95 Q 219.76 395.41 219.80 393.06 Q 219.87 392.83 220.00 392.62 Q 220.14 392.41 220.40 392.17 Q 220.67 391.92 220.75 391.84 Q 221.13 391.54 221.51 391.54 Q 222.57 391.54 223.18 392.79 Q 223.14 394.24 222.84 396.82 Q 222.53 399.40 222.46 400.51 Q 221.85 405.86 222.00 408.94 Q 222.95 408.30 224.28 408.11 Q 226.67 407.76 227.81 407.76 Q 230.55 407.76 232.75 408.79 Q 234.05 409.40 234.94 410.94 Q 235.83 412.48 235.72 413.81 Q 235.87 414.76 235.41 415.69 Q 234.96 416.62 234.48 417.11 Q 234.01 417.61 233.02 418.52 Q 230.09 420.53 226.41 420.46 Z M 228.19 417.11 Q 231.50 416.47 231.99 414.34 Q 232.30 413.31 231.44 412.23 Q 230.59 411.15 229.49 410.84 Q 228.65 410.65 228.00 410.65 Q 225.31 410.65 222.87 412.06 Q 222.30 412.48 222.11 412.76 Q 221.92 413.05 222.04 413.54 Q 221.92 413.73 222.02 414.03 Q 222.11 414.34 222.11 414.51 Q 222.11 414.68 222.34 414.98 Q 222.57 415.29 222.66 415.42 Q 222.76 415.55 223.03 415.84 Q 223.29 416.12 223.41 416.24 Q 223.52 416.35 223.77 416.58 Q 224.01 416.81 224.09 416.88 Q 226.14 417.30 228.19 417.11 Z M 246.25 420.19 Q 244.31 419.77 243.57 419.58 Q 242.83 419.39 241.99 418.80 Q 241.16 418.21 240.76 417.42 Q 240.36 416.62 239.75 414.95 L 239.94 410.92 Q 239.68 410.50 239.68 409.70 Q 239.68 408.90 239.94 408.52 Q 241.58 407.35 244.08 405.79 Q 245.68 404.84 248.07 404.84 Q 250.89 404.84 253.49 406.05 Q 256.09 407.27 257.80 409.40 Q 259.78 412.10 258.75 414.45 Q 256.32 418.63 251.53 419.73 Q 250.92 419.96 250.18 420.08 Q 249.44 420.19 248.99 420.21 Q 248.53 420.23 247.54 420.21 Q 246.55 420.19 246.25 420.19 Z M 247.81 417.30 Q 249.33 417.30 250.98 416.87 Q 252.63 416.43 254.04 415.35 Q 255.45 414.26 255.64 412.78 Q 255.60 412.32 255.50 411.98 Q 255.41 411.64 255.20 411.32 Q 254.99 410.99 254.86 410.84 Q 254.72 410.69 254.40 410.35 Q 254.08 410.01 253.96 409.89 Q 250.73 408.11 249.06 408.11 Q 247.88 408.11 247.39 408.33 Q 246.33 408.75 246.25 408.83 Q 246.02 409.02 245.53 409.36 Q 245.03 409.70 244.84 409.89 Q 243.59 410.84 243.48 411.75 Q 243.36 412.21 243.34 412.74 Q 243.32 413.27 243.34 413.92 Q 243.36 414.57 243.36 414.95 Q 243.63 415.48 244.24 416.11 Q 244.84 416.73 245.30 416.85 Q 246.17 417.30 247.81 417.30 Z M 268.56 420.27 Q 267.38 420.42 266.13 419.94 Q 264.88 419.47 264.15 418.59 Q 263.81 418.06 263.68 417.85 Q 263.55 417.64 263.28 417.17 Q 263.01 416.69 262.92 416.39 Q 262.82 416.09 262.71 415.67 Q 262.60 415.25 262.60 414.85 Q 262.60 414.45 262.71 414.03 Q 262.75 412.74 263.56 411.41 Q 264.38 410.08 265.22 409.28 Q 266.05 408.49 267.38 407.38 Q 267.65 407.19 267.76 407.08 Q 269.36 405.79 272.10 405.79 Q 272.67 405.79 275.70 406.09 Q 275.78 406.17 276.22 406.36 Q 276.66 406.55 276.85 406.76 Q 277.04 406.97 276.88 407.31 L 277.38 407.80 Q 278.21 408.30 278.44 408.75 Q 278.78 409.32 279.69 412.32 Q 279.77 412.63 280.44 414.38 Q 281.10 416.12 281.18 416.47 Q 282.13 418.21 282.17 418.78 L 282.36 419.39 Q 282.32 419.58 282.01 419.81 Q 281.71 420.04 281.67 420.08 Q 281.03 420.30 279.69 419.85 Q 279.43 419.73 279.22 419.56 Q 279.01 419.39 278.92 419.26 Q 278.82 419.13 278.57 418.75 Q 278.33 418.37 278.21 418.18 L 278.06 417.99 Q 277.64 417.00 276.77 414.49 Q 275.25 417.07 273.08 418.69 Q 270.92 420.30 268.56 420.27 Z M 268.37 416.73 Q 269.02 416.73 270.16 416.43 Q 272.02 415.74 273.54 414.03 Q 275.02 411.98 275.21 410.42 Q 275.21 410.31 275.36 409.53 Q 275.51 408.75 275.48 408.45 Q 274.72 408.64 273.29 408.73 Q 271.87 408.83 271.11 408.98 Q 270.12 409.13 269.09 409.91 Q 268.07 410.69 267.54 411.37 Q 267.00 412.06 266.09 413.31 Q 265.44 414.11 266.32 415.71 Q 267.00 416.73 268.37 416.73 Z M 289.01 408.90 Q 290.00 406.93 291.25 405.75 Q 292.66 404.34 294.56 404.15 Q 296.42 403.93 298.09 404.61 Q 298.81 405.33 298.81 405.79 Q 298.81 406.66 298.66 406.81 Q 297.94 407.54 297.45 407.54 Q 297.41 407.54 296.90 407.46 Q 296.38 407.38 295.96 407.35 L 295.09 407.35 Q 293.46 407.57 292.51 408.68 L 291.67 409.74 Q 290.72 411.07 290.49 411.68 Q 290.42 411.87 290.09 412.59 Q 289.77 413.31 289.73 413.69 Q 289.66 415.93 290.00 417.07 Q 290.19 417.42 290.23 417.81 Q 290.26 418.21 290.25 418.46 Q 290.23 418.71 290.02 419.18 Q 289.81 419.66 289.71 419.81 Q 289.62 419.96 289.31 420.49 Q 288.97 420.87 288.59 420.87 Q 287.87 420.87 287.21 420.15 Q 286.54 419.43 286.20 418.40 L 286.16 414.03 Q 286.08 412.55 285.55 407.19 Q 285.40 405.60 285.55 404.53 Q 285.97 403.70 287.15 403.62 Q 287.68 403.55 288.06 403.81 Q 288.44 404.08 288.48 404.65 Q 288.52 404.80 288.61 404.99 Q 288.71 405.18 288.71 405.29 Q 288.71 406.13 288.82 408.75 L 289.01 408.90 Z M 306.04 420.72 Q 304.18 420.72 303.08 419.73 Q 302.55 419.32 302.13 418.75 Q 301.52 417.76 301.39 416.20 Q 301.25 414.64 301.40 413.50 L 301.40 413.24 Q 301.78 410.20 304.29 407.86 Q 306.80 405.52 309.80 406.02 Q 311.59 406.09 313.01 406.87 Q 314.44 407.65 314.59 408.83 L 314.63 408.68 L 314.67 407.16 L 314.82 402.52 L 314.86 401.00 Q 314.89 400.73 314.97 399.80 Q 315.05 398.87 315.08 398.44 Q 315.12 398.00 315.26 397.30 Q 315.39 396.59 315.58 396.02 Q 315.65 395.30 315.98 393.50 Q 316.30 391.69 316.30 391.61 Q 316.45 390.51 317.52 390.17 Q 318.12 390.21 318.85 390.57 Q 319.57 390.93 319.64 391.39 Q 320.02 392.30 320.18 394.31 L 320.14 397.39 Q 320.14 398.80 319.64 402.90 Q 319.53 403.70 318.92 405.18 Q 318.31 406.66 318.20 407.46 L 318.20 409.89 L 318.47 410.58 L 319.19 413.01 Q 319.42 413.92 319.76 414.77 Q 320.10 415.63 320.63 416.87 Q 321.16 418.10 321.36 418.52 Q 321.43 419.70 320.86 420.15 Q 320.71 420.38 320.44 420.38 Q 319.68 420.38 318.81 419.85 Q 317.02 418.06 316.03 413.84 Q 314.55 416.24 313.91 416.85 Q 311.17 419.66 308.85 420.42 Q 306.53 420.72 306.04 420.72 Z M 304.52 414.45 Q 304.22 415.71 305.05 416.43 Q 305.89 417.15 307.14 417.15 Q 308.02 417.15 308.62 416.85 Q 311.97 415.14 314.32 409.44 Q 314.25 409.66 313.74 409.63 Q 313.22 409.59 313.15 409.59 Q 310.41 409.21 308.36 409.40 Q 304.48 411.37 304.52 414.45 Z  M 345.65 420.42 Q 345.27 420.34 344.96 420.17 Q 344.66 420.00 344.49 419.85 Q 344.32 419.70 344.15 419.33 Q 343.98 418.97 343.92 418.78 Q 343.86 418.59 343.71 418.08 Q 343.56 417.57 343.48 417.34 Q 342.76 414.76 342.76 409.89 Q 342.46 409.47 342.04 409.17 Q 338.62 408.33 338.92 406.51 Q 338.81 405.75 339.15 405.14 Q 339.49 404.53 340.18 404.57 Q 340.56 404.53 341.24 404.74 Q 341.93 404.95 342.38 404.80 L 342.31 400.70 Q 342.23 399.21 343.22 396.10 Q 343.56 394.46 345.46 392.30 Q 346.22 391.50 347.89 390.74 Q 348.19 390.59 348.99 390.51 Q 349.79 390.44 350.09 390.32 L 353.17 390.44 Q 354.69 390.89 355.11 391.16 Q 355.45 391.31 355.66 391.52 Q 355.87 391.73 356.18 392.18 Q 356.48 392.64 356.56 392.75 Q 356.56 392.94 356.69 393.50 Q 356.82 394.05 356.75 394.39 Q 356.67 394.73 356.21 394.81 Q 355.64 395.45 354.46 394.84 Q 354.20 394.77 353.65 394.37 Q 353.10 393.97 352.98 393.78 Q 351.96 393.74 350.51 393.89 Q 350.47 393.89 350.02 394.03 Q 349.56 394.16 349.41 394.12 Q 348.04 393.70 347.02 395.89 Q 345.99 398.07 345.46 401.08 Q 345.12 403.85 345.65 405.79 L 346.14 406.05 Q 347.55 406.43 349.92 406.81 Q 352.30 407.19 353.51 407.50 Q 355.87 408.26 356.86 409.17 Q 357.01 409.74 356.65 410.27 Q 356.29 410.80 355.64 410.84 Q 355.03 410.99 354.24 410.99 Q 353.21 410.99 351.92 410.58 Q 350.63 410.16 350.21 410.12 Q 348.88 409.85 348.00 409.85 Q 347.06 409.85 346.14 410.12 L 346.14 410.42 L 346.11 411.26 L 346.11 411.56 Q 345.95 413.12 346.50 415.55 Q 347.06 417.99 347.09 419.05 Q 347.09 419.32 346.83 419.56 Q 346.56 419.81 346.16 420.08 Q 345.76 420.34 345.65 420.42 Z M 366.67 420.19 Q 364.73 419.77 363.99 419.58 Q 363.25 419.39 362.41 418.80 Q 361.58 418.21 361.18 417.42 Q 360.78 416.62 360.17 414.95 L 360.36 410.92 Q 360.10 410.50 360.10 409.70 Q 360.10 408.90 360.36 408.52 Q 362.00 407.35 364.50 405.79 Q 366.10 404.84 368.49 404.84 Q 371.31 404.84 373.91 406.05 Q 376.51 407.27 378.22 409.40 Q 380.20 412.10 379.17 414.45 Q 376.74 418.63 371.95 419.73 Q 371.34 419.96 370.60 420.08 Q 369.86 420.19 369.41 420.21 Q 368.95 420.23 367.96 420.21 Q 366.97 420.19 366.67 420.19 Z M 368.23 417.30 Q 369.75 417.30 371.40 416.87 Q 373.05 416.43 374.46 415.35 Q 375.87 414.26 376.06 412.78 Q 376.02 412.32 375.92 411.98 Q 375.83 411.64 375.62 411.32 Q 375.41 410.99 375.28 410.84 Q 375.14 410.69 374.82 410.35 Q 374.50 410.01 374.38 409.89 Q 371.15 408.11 369.48 408.11 Q 368.30 408.11 367.81 408.33 Q 366.75 408.75 366.67 408.83 Q 366.44 409.02 365.95 409.36 Q 365.45 409.70 365.26 409.89 Q 364.01 410.84 363.90 411.75 Q 363.78 412.21 363.76 412.74 Q 363.74 413.27 363.76 413.92 Q 363.78 414.57 363.78 414.95 Q 364.05 415.48 364.66 416.11 Q 365.26 416.73 365.72 416.85 Q 366.59 417.30 368.23 417.30 Z M 387.04 408.90 Q 388.03 406.93 389.29 405.75 Q 390.69 404.34 392.59 404.15 Q 394.45 403.93 396.12 404.61 Q 396.85 405.33 396.85 405.79 Q 396.85 406.66 396.70 406.81 Q 395.97 407.54 395.48 407.54 Q 395.44 407.54 394.93 407.46 Q 394.42 407.38 394.00 407.35 L 393.12 407.35 Q 391.49 407.57 390.54 408.68 L 389.70 409.74 Q 388.75 411.07 388.53 411.68 Q 388.45 411.87 388.13 412.59 Q 387.80 413.31 387.77 413.69 Q 387.69 415.93 388.03 417.07 Q 388.22 417.42 388.26 417.81 Q 388.30 418.21 388.28 418.46 Q 388.26 418.71 388.05 419.18 Q 387.84 419.66 387.75 419.81 Q 387.65 419.96 387.35 420.49 Q 387.01 420.87 386.62 420.87 Q 385.90 420.87 385.24 420.15 Q 384.57 419.43 384.23 418.40 L 384.19 414.03 Q 384.12 412.55 383.59 407.19 Q 383.43 405.60 383.59 404.53 Q 384.00 403.70 385.18 403.62 Q 385.71 403.55 386.09 403.81 Q 386.47 404.08 386.51 404.65 Q 386.55 404.80 386.64 404.99 Q 386.74 405.18 386.74 405.29 Q 386.74 406.13 386.85 408.75 L 387.04 408.90 Z  M 433.87 421.98 Q 433.38 421.98 432.92 421.75 Q 432.35 421.29 431.44 419.89 L 431.25 419.51 Q 431.21 419.01 431.48 418.06 Q 431.74 417.11 431.67 416.62 Q 431.67 416.24 431.29 415.36 Q 431.06 415.14 431.02 415.14 L 430.64 414.95 Q 429.84 415.14 427.24 415.57 Q 424.64 416.01 423.65 416.39 Q 422.97 416.58 422.55 416.58 Q 422.09 416.58 421.52 416.43 L 421.29 416.43 Q 421.14 416.54 420.31 417.36 Q 419.47 418.18 418.73 418.88 Q 417.99 419.58 417.72 419.77 Q 417.30 420.08 416.35 420.70 Q 415.40 421.33 414.99 421.67 Q 413.66 421.67 413.66 420.95 Q 413.43 419.70 414.57 418.33 L 418.18 414.98 Q 420.00 412.89 422.24 409.82 Q 424.49 406.74 425.70 405.33 Q 426.08 404.76 426.96 403.43 Q 427.83 402.10 428.23 401.42 Q 428.63 400.73 429.24 399.63 Q 429.84 398.53 430.19 397.52 Q 430.53 396.52 430.75 395.41 Q 430.75 395.38 430.93 394.71 Q 431.10 394.05 431.06 393.97 Q 431.93 392.75 432.85 392.72 L 433.30 392.68 Q 434.06 392.68 434.59 393.21 Q 435.12 393.74 435.09 394.39 L 434.78 398.42 Q 434.75 399.02 434.69 400.01 Q 434.63 401.00 434.59 401.59 Q 434.56 402.18 434.52 402.44 Q 434.56 404.34 434.54 405.29 Q 434.52 406.24 434.46 408.12 Q 434.40 410.01 434.40 410.99 Q 434.78 411.37 435.31 411.37 Q 435.39 411.37 435.73 411.43 Q 436.08 411.49 436.27 411.53 Q 436.46 411.56 436.70 411.64 Q 436.95 411.72 437.12 411.87 Q 437.29 412.02 437.41 412.25 Q 437.44 412.32 437.42 412.55 Q 437.41 412.78 437.37 412.86 Q 436.95 413.24 435.16 414.11 Q 435.01 414.15 434.86 414.30 Q 434.67 414.83 435.01 416.24 Q 435.35 417.64 435.35 417.83 Q 435.39 418.18 435.50 418.88 Q 435.62 419.58 435.66 419.96 Q 435.70 420.34 435.50 420.86 Q 435.31 421.37 434.82 421.75 Q 434.40 421.98 433.87 421.98 Z M 424.41 412.63 Q 424.64 412.63 425.40 412.61 Q 426.16 412.59 426.52 412.57 Q 426.88 412.55 427.58 412.50 Q 428.29 412.44 428.74 412.36 Q 429.20 412.29 429.77 412.13 Q 430.34 411.98 430.79 411.79 L 431.06 411.60 L 431.21 409.74 L 431.21 407.99 L 431.17 404.65 L 431.17 402.90 Q 430.56 403.28 429.92 404.57 Q 429.27 405.86 428.74 406.36 Q 427.98 407.61 426.27 409.76 Q 424.56 411.91 424.18 412.44 Q 424.14 412.48 424.24 412.55 Q 424.33 412.63 424.41 412.63 Z M 443.04 420.99 Q 441.67 421.29 440.75 419.58 L 441.13 417.68 L 445.09 416.69 Q 445.92 416.50 446.04 415.97 Q 446.45 415.02 446.80 411.49 Q 447.14 407.95 447.33 407.12 Q 447.94 402.79 447.75 400.62 Q 447.18 400.39 446.64 400.39 Q 446.34 400.39 445.64 400.49 Q 444.94 400.58 444.56 400.58 Q 444.25 400.77 443.72 400.77 Q 443.07 400.77 442.62 400.58 Q 441.82 400.05 441.67 398.64 Q 441.63 398.30 442.31 397.60 Q 443.00 396.90 443.72 396.44 Q 444.59 396.36 445.50 396.97 L 448.39 396.97 Q 449.08 396.74 449.12 396.71 Q 449.19 396.67 449.61 396.23 Q 450.03 395.79 450.33 395.76 Q 451.39 395.68 451.78 396.25 L 453.45 396.25 Q 453.87 396.17 454.28 396.08 Q 454.70 395.98 454.78 395.95 Q 454.85 395.91 455.12 395.89 Q 455.38 395.87 455.57 395.89 Q 455.76 395.91 456.34 395.95 L 457.25 395.95 Q 458.05 396.33 458.62 397.22 Q 459.19 398.11 458.96 398.83 Q 458.43 399.06 457.99 399.21 Q 457.55 399.37 457.19 399.48 Q 456.83 399.59 456.60 399.65 Q 456.37 399.71 456.07 399.73 Q 455.76 399.75 455.65 399.75 Q 455.54 399.75 455.18 399.75 Q 454.81 399.75 454.70 399.75 Q 453.71 399.75 452.95 399.86 Q 452.84 399.86 452.76 399.90 L 451.97 400.05 Q 451.89 400.09 451.78 400.09 Q 451.74 400.09 451.64 400.18 Q 451.55 400.28 451.55 400.32 Q 451.20 401.65 450.58 406.13 Q 449.95 410.61 449.65 411.87 Q 449.61 412.21 449.51 413.14 Q 449.42 414.07 449.40 414.51 Q 449.38 414.95 449.42 415.74 Q 449.42 415.82 449.67 415.99 Q 449.91 416.16 450.14 416.20 Q 454.28 415.67 455.57 415.74 Q 455.61 415.74 456.11 415.80 Q 456.60 415.86 456.85 415.92 Q 457.10 415.97 457.48 416.09 Q 457.86 416.20 458.06 416.41 Q 458.27 416.62 458.31 416.92 Q 458.43 417.26 458.25 417.78 Q 458.08 418.29 457.82 418.37 Q 456.68 418.78 452.31 419.58 Q 452.12 419.58 451.97 419.62 L 450.71 419.77 Q 450.56 419.81 450.37 419.81 Q 449.08 420.04 448.20 420.76 L 447.03 420.76 L 446.04 420.49 Q 445.39 420.53 444.42 420.74 Q 443.45 420.95 443.04 420.99 Z  M 496.97 421.98 Q 496.47 421.98 496.02 421.75 Q 495.45 421.29 494.54 419.89 L 494.35 419.51 Q 494.31 419.01 494.57 418.06 Q 494.84 417.11 494.76 416.62 Q 494.76 416.24 494.38 415.36 Q 494.16 415.14 494.12 415.14 L 493.74 414.95 Q 492.94 415.14 490.34 415.57 Q 487.73 416.01 486.75 416.39 Q 486.06 416.58 485.64 416.58 Q 485.19 416.58 484.62 416.43 L 484.39 416.43 Q 484.24 416.54 483.40 417.36 Q 482.57 418.18 481.83 418.88 Q 481.08 419.58 480.82 419.77 Q 480.40 420.08 479.45 420.70 Q 478.50 421.33 478.08 421.67 Q 476.75 421.67 476.75 420.95 Q 476.52 419.70 477.66 418.33 L 481.27 414.98 Q 483.10 412.89 485.34 409.82 Q 487.58 406.74 488.80 405.33 Q 489.18 404.76 490.05 403.43 Q 490.93 402.10 491.33 401.42 Q 491.72 400.73 492.33 399.63 Q 492.94 398.53 493.28 397.52 Q 493.62 396.52 493.85 395.41 Q 493.85 395.38 494.02 394.71 Q 494.19 394.05 494.16 393.97 Q 495.03 392.75 495.94 392.72 L 496.40 392.68 Q 497.16 392.68 497.69 393.21 Q 498.22 393.74 498.19 394.39 L 497.88 398.42 Q 497.84 399.02 497.79 400.01 Q 497.73 401.00 497.69 401.59 Q 497.65 402.18 497.61 402.44 Q 497.65 404.34 497.63 405.29 Q 497.61 406.24 497.56 408.12 Q 497.50 410.01 497.50 410.99 Q 497.88 411.37 498.41 411.37 Q 498.49 411.37 498.83 411.43 Q 499.17 411.49 499.36 411.53 Q 499.55 411.56 499.80 411.64 Q 500.05 411.72 500.22 411.87 Q 500.39 412.02 500.50 412.25 Q 500.54 412.32 500.52 412.55 Q 500.50 412.78 500.46 412.86 Q 500.05 413.24 498.26 414.11 Q 498.11 414.15 497.96 414.30 Q 497.77 414.83 498.11 416.24 Q 498.45 417.64 498.45 417.83 Q 498.49 418.18 498.60 418.88 Q 498.72 419.58 498.75 419.96 Q 498.79 420.34 498.60 420.86 Q 498.41 421.37 497.92 421.75 Q 497.50 421.98 496.97 421.98 Z M 487.51 412.63 Q 487.73 412.63 488.50 412.61 Q 489.25 412.59 489.62 412.57 Q 489.98 412.55 490.68 412.50 Q 491.38 412.44 491.84 412.36 Q 492.29 412.29 492.86 412.13 Q 493.44 411.98 493.89 411.79 L 494.16 411.60 L 494.31 409.74 L 494.31 407.99 L 494.27 404.65 L 494.27 402.90 Q 493.66 403.28 493.02 404.57 Q 492.37 405.86 491.84 406.36 Q 491.08 407.61 489.37 409.76 Q 487.66 411.91 487.28 412.44 Q 487.24 412.48 487.34 412.55 Q 487.43 412.63 487.51 412.63 Z M 513.24 434.25 Q 511.34 433.49 508.64 431.36 Q 507.80 430.94 507.37 430.68 Q 506.93 430.41 506.44 429.88 Q 505.94 429.35 505.75 428.70 Q 505.68 427.11 506.47 426.54 Q 507.35 425.85 508.22 425.85 Q 508.91 425.85 509.36 426.31 Q 509.55 426.50 510.35 427.47 Q 511.15 428.44 511.76 428.89 Q 512.37 429.35 513.09 429.46 Q 513.20 429.46 513.24 429.42 Q 514.38 429.01 514.85 428.04 Q 515.33 427.07 515.52 425.59 Q 515.71 424.10 515.94 423.53 Q 516.01 422.81 516.11 421.25 Q 516.20 419.70 516.24 418.97 Q 514.07 419.54 512.02 419.54 Q 510.16 419.54 508.18 419.09 Q 506.63 418.18 505.51 416.79 Q 504.38 415.40 504.35 413.77 Q 504.50 411.72 506.19 409.72 Q 507.88 407.73 509.70 406.81 Q 511.11 405.64 513.20 405.64 Q 515.90 405.64 517.15 407.50 Q 517.15 407.69 517.12 408.14 Q 517.12 409.97 516.70 409.97 Q 516.51 409.97 516.20 409.66 Q 515.75 409.40 513.73 409.17 Q 512.90 409.13 511.98 409.70 Q 511.07 410.27 510.46 410.94 Q 509.86 411.60 508.98 412.67 Q 508.79 412.93 508.68 413.05 Q 508.49 413.24 508.41 413.46 Q 508.34 413.69 508.41 413.92 Q 508.49 414.15 508.58 414.34 Q 508.68 414.53 508.89 414.74 Q 509.10 414.95 509.23 415.08 Q 509.36 415.21 509.59 415.42 Q 509.82 415.63 509.89 415.71 Q 511.03 416.16 512.40 416.16 Q 513.62 416.16 514.89 415.76 Q 516.16 415.36 517.19 414.45 Q 518.22 413.54 518.29 412.32 Q 518.63 407.80 520.23 407.27 L 520.34 407.27 Q 521.37 407.57 522.32 409.06 L 522.43 409.25 L 522.40 409.21 Q 522.47 410.88 521.39 413.86 Q 520.31 416.85 520.12 418.06 Q 518.90 422.09 518.33 426.65 Q 518.22 427.90 517.78 428.91 Q 517.34 429.92 516.36 431.59 Q 515.21 433.30 514.49 433.79 Q 513.92 434.14 513.24 434.25 Z M 525.82 416.69 Q 525.33 414.68 526.03 412.72 Q 526.74 410.77 528.22 408.52 Q 530.61 405.41 533.54 404.46 L 534.14 404.34 Q 535.02 404.19 535.51 404.23 Q 537.64 404.31 539.20 405.52 Q 540.76 406.74 540.87 408.83 Q 540.91 410.84 539.35 412.55 Q 537.79 414.26 535.93 414.41 Q 535.25 414.68 534.45 414.68 Q 532.51 414.68 530.42 413.58 L 529.28 413.01 Q 528.79 414.00 528.79 414.53 Q 529.21 416.66 531.09 418.12 Q 532.97 419.58 535.13 419.43 Q 536.42 419.58 538.59 418.90 L 539.69 418.59 Q 540.83 418.14 542.85 417.99 Q 543.76 417.87 543.87 418.71 L 543.87 420.00 Q 542.58 421.41 540.79 421.52 L 539.85 421.79 Q 536.77 422.66 535.32 422.58 Q 532.28 422.77 529.74 421.18 Q 527.12 419.81 525.82 416.69 Z M 530.57 410.88 Q 531.49 411.18 531.67 411.18 Q 531.98 411.34 532.28 411.45 Q 532.59 411.56 532.99 411.60 Q 533.38 411.64 533.58 411.64 Q 533.76 411.64 534.32 411.64 Q 534.87 411.64 534.94 411.64 Q 535.78 411.49 536.67 410.79 Q 537.57 410.08 537.72 409.32 Q 538.06 408.14 535.93 407.46 L 535.25 407.23 Q 534.49 407.23 533.63 407.76 Q 532.78 408.30 532.40 408.66 Q 532.02 409.02 531.14 409.93 L 530.73 410.61 L 530.57 410.88 Z M 561.78 420.11 Q 561.40 420.11 561.32 419.73 Q 561.24 419.62 560.81 418.88 Q 560.37 418.14 560.10 417.83 Q 559.38 415.33 559.15 413.01 Q 559.04 412.74 558.83 411.85 Q 558.62 410.96 558.43 410.61 Q 558.36 410.31 558.00 409.95 Q 557.63 409.59 557.41 409.59 Q 557.10 409.59 556.99 409.66 Q 554.48 411.79 552.43 414.95 Q 552.35 415.10 551.46 416.60 Q 550.57 418.10 550.26 418.78 Q 549.84 419.47 549.05 419.28 L 547.38 417.57 L 547.38 416.39 Q 547.56 415.40 547.79 412.55 Q 548.02 409.70 548.10 409.17 Q 548.10 408.98 547.91 407.84 Q 547.87 407.69 547.87 407.35 Q 547.87 406.74 548.27 406.36 Q 548.67 405.98 549.27 406.02 Q 550.49 406.02 550.98 406.78 Q 551.25 407.80 551.25 409.44 Q 551.25 409.97 551.17 410.73 Q 551.10 411.49 551.10 411.53 Q 551.29 411.37 551.82 410.71 Q 552.35 410.04 552.92 409.32 Q 553.49 408.60 553.61 408.45 Q 553.83 408.18 554.27 407.57 Q 554.71 406.97 555.07 406.59 Q 555.43 406.21 555.96 405.79 Q 556.76 405.14 558.09 405.07 Q 558.51 404.91 558.95 405.12 Q 559.38 405.33 559.88 405.96 Q 560.37 406.59 560.50 406.81 Q 560.64 407.04 561.09 407.76 Q 562.27 410.50 562.27 413.73 L 562.99 416.85 Q 562.99 416.96 563.24 417.61 Q 563.49 418.25 563.49 418.29 Q 563.56 419.32 562.99 419.73 Q 562.88 419.77 562.44 419.94 Q 562.00 420.11 561.78 420.11 Z M 576.22 422.17 Q 574.47 422.09 573.64 421.03 Q 573.52 420.80 572.95 419.83 Q 572.38 418.86 572.16 418.12 Q 571.93 417.38 572.04 416.54 Q 571.59 411.83 571.70 409.74 Q 571.78 408.94 571.59 407.38 Q 571.36 406.51 571.17 406.36 Q 570.07 406.47 569.53 406.81 Q 569.19 406.81 568.55 407.08 Q 567.90 407.35 567.44 407.27 Q 567.18 407.16 566.91 406.93 Q 566.65 406.70 566.36 406.38 Q 566.08 406.05 565.89 405.90 Q 565.73 405.52 565.77 404.84 Q 565.81 404.15 566.04 403.81 L 567.29 402.71 Q 569.00 402.67 570.98 402.33 L 571.24 402.03 L 571.24 395.03 Q 572.12 394.08 573.41 394.35 Q 574.44 395.15 574.55 396.33 Q 574.66 396.63 574.74 398.78 Q 574.82 400.92 575.08 401.19 L 575.80 401.42 Q 576.56 401.34 577.74 401.13 Q 578.92 400.92 579.45 400.89 Q 579.98 400.85 581.39 400.92 L 583.14 401.00 Q 584.77 401.23 584.35 402.90 Q 583.71 403.55 583.37 403.62 Q 582.49 403.70 581.58 403.85 Q 580.67 404.00 579.32 404.32 Q 577.97 404.65 577.51 404.72 Q 576.64 404.72 575.20 405.26 L 575.01 405.52 Q 575.01 406.09 574.93 406.87 Q 574.85 407.65 574.87 408.16 Q 574.89 408.68 575.08 409.28 Q 575.08 415.93 575.77 417.57 Q 576.37 418.14 576.81 418.25 Q 577.25 418.37 578.01 418.18 Q 578.16 418.14 578.46 418.06 Q 578.77 417.99 578.88 417.97 Q 579.00 417.95 579.22 417.87 Q 579.45 417.80 579.55 417.76 Q 579.64 417.72 579.81 417.62 Q 579.98 417.53 580.08 417.42 Q 580.17 417.30 580.33 417.15 Q 580.48 417.00 580.61 416.81 Q 580.74 416.62 580.90 416.37 Q 581.05 416.12 581.24 415.82 Q 581.20 415.63 581.35 414.91 Q 581.50 414.19 581.58 414.00 Q 582.00 412.82 583.10 412.86 Q 583.63 412.78 583.90 413.05 Q 584.16 413.31 584.39 414.00 L 584.58 414.64 Q 584.32 416.50 584.01 416.96 Q 583.25 418.48 582.85 419.05 Q 582.45 419.62 581.43 420.25 Q 580.40 420.87 578.27 421.56 Q 578.16 421.60 577.40 421.88 Q 576.64 422.17 576.22 422.17 Z M 589.72 417.34 Q 589.79 417.19 590.06 416.77 Q 590.33 416.35 590.44 416.12 Q 592.42 416.47 593.78 417.80 Q 594.35 418.25 595.00 418.52 Q 595.65 418.78 596.46 418.88 Q 597.28 418.97 597.81 419.01 Q 598.34 419.05 599.35 419.03 Q 600.36 419.01 600.78 419.01 Q 601.84 419.01 602.94 418.59 Q 603.32 418.44 603.40 418.02 Q 603.47 417.61 603.17 417.34 Q 602.45 416.81 599.43 415.33 Q 596.41 413.84 596.22 413.73 Q 592.95 412.70 590.44 410.65 Q 590.25 410.39 589.81 410.02 Q 589.38 409.66 589.11 409.30 Q 588.84 408.94 588.77 408.49 Q 588.73 407.00 590.21 405.86 L 592.61 404.34 Q 596.14 402.94 599.33 402.71 Q 599.41 402.71 599.77 402.75 Q 600.13 402.79 600.19 402.79 Q 600.24 402.79 600.55 402.82 Q 600.85 402.86 600.93 402.90 Q 601.00 402.94 601.23 403.01 Q 601.46 403.09 601.56 403.19 Q 601.65 403.28 601.80 403.41 Q 601.95 403.55 602.05 403.72 Q 602.14 403.89 602.22 404.12 Q 602.45 405.45 601.50 406.28 Q 601.31 406.28 600.28 406.32 Q 599.26 406.36 598.95 406.38 Q 598.65 406.40 597.81 406.49 Q 596.98 406.59 596.52 406.70 Q 596.06 406.81 595.46 407.04 Q 594.85 407.27 594.32 407.57 Q 593.78 407.76 593.61 408.18 Q 593.44 408.60 594.05 408.90 Q 595.84 410.12 599.26 411.75 Q 602.68 413.39 603.89 414.07 Q 607.27 416.20 607.27 418.71 Q 607.27 422.28 598.65 422.58 Q 596.75 422.66 594.58 422.01 Q 592.42 421.37 590.90 420.19 Q 589.38 419.62 589.72 417.34 Z" fill="#b3a4f5"/></g>
  <g filter="url(#sk)"><path d="M 293.58 471.56 Q 291.78 471.56 289.67 471.00 Q 286.16 470.10 283.19 466.57 Q 282.22 465.14 281.96 463.12 Q 281.70 461.11 282.11 459.44 Q 282.92 455.20 288.62 451.47 Q 289.07 451.15 289.76 450.89 Q 290.45 450.64 290.88 450.54 Q 291.32 450.45 292.34 450.27 Q 293.37 450.10 293.58 450.04 Q 295.18 450.45 296.51 451.37 Q 297.85 452.28 298.73 453.51 Q 299.61 454.74 300.15 456.24 Q 300.69 457.74 300.67 459.25 Q 300.66 460.76 300.25 462.25 Q 299.98 463.14 299.74 463.69 Q 299.50 464.25 299.05 464.97 Q 298.61 465.70 297.96 466.04 Q 297.31 466.38 296.47 466.32 Q 295.58 466.38 294.87 465.42 Q 294.15 464.46 293.80 463.03 Q 293.50 463.65 293.18 464.10 Q 292.86 464.54 292.44 464.81 Q 292.02 465.08 291.72 465.22 Q 291.42 465.35 290.92 465.53 Q 290.43 465.70 290.21 465.78 Q 288.91 465.92 288.08 464.88 Q 287.24 463.84 287.10 462.57 Q 287.10 461.41 287.70 459.93 Q 288.29 458.44 288.70 458.17 Q 289.62 457.31 290.43 456.86 Q 291.24 456.42 292.31 456.44 Q 294.26 456.25 295.01 457.55 Q 295.10 457.95 294.91 458.29 Q 294.72 458.63 294.31 458.63 L 294.88 458.85 Q 295.31 459.33 295.50 460.09 Q 295.50 460.25 295.53 460.41 L 295.64 461.52 Q 295.66 461.71 295.66 461.87 Q 295.64 462.57 295.89 463.00 Q 296.15 463.44 296.47 463.44 Q 296.77 463.44 297.20 463.22 Q 298.17 461.92 298.39 459.67 Q 298.61 457.41 298.09 455.77 Q 296.58 453.31 293.58 452.74 Q 292.34 452.74 290.98 453.15 Q 289.62 453.55 288.91 454.07 Q 285.89 456.36 284.97 458.36 Q 284.35 460.65 284.62 462.64 Q 284.89 464.62 286.21 466.24 Q 286.56 466.78 287.02 467.17 Q 287.48 467.57 288.21 467.85 Q 288.94 468.13 289.33 468.25 Q 289.72 468.38 290.76 468.58 Q 291.80 468.78 292.02 468.83 Q 293.56 468.86 297.55 468.48 Q 297.99 468.43 298.92 468.24 Q 299.85 468.05 300.33 468.05 Q 301.39 468.05 302.25 468.30 Q 302.52 468.30 302.60 468.51 Q 302.68 468.73 302.64 469.11 Q 302.60 469.48 302.60 469.54 Q 302.36 469.92 301.33 470.29 Q 300.66 470.37 298.97 470.74 Q 297.28 471.10 296.31 471.16 Q 295.10 471.56 293.58 471.56 Z M 290.24 463.22 Q 290.94 463.19 291.59 462.73 Q 292.23 462.27 292.48 461.49 Q 292.72 459.93 293.07 459.41 Q 293.34 459.03 293.77 458.79 Q 293.72 458.63 293.56 458.63 Q 293.40 458.52 293.00 458.60 Q 292.61 458.68 292.48 458.72 Q 292.34 458.76 291.95 458.94 Q 291.56 459.12 291.40 459.17 Q 289.37 460.36 289.07 461.68 Q 288.86 462.44 289.26 462.91 Q 289.67 463.38 290.24 463.22 Z M 308.10 466.30 Q 307.83 466.24 307.61 466.12 Q 307.39 466.00 307.27 465.89 Q 307.15 465.78 307.03 465.53 Q 306.91 465.27 306.87 465.14 Q 306.83 465.00 306.72 464.64 Q 306.61 464.27 306.56 464.11 Q 306.05 462.27 306.05 458.82 Q 305.83 458.52 305.53 458.31 Q 303.10 457.71 303.32 456.42 Q 303.24 455.88 303.48 455.44 Q 303.72 455.01 304.21 455.04 Q 304.48 455.01 304.96 455.16 Q 305.45 455.31 305.77 455.20 L 305.72 452.28 Q 305.67 451.23 306.37 449.02 Q 306.61 447.86 307.96 446.32 Q 308.50 445.75 309.69 445.21 Q 309.91 445.10 310.47 445.05 Q 311.04 444.99 311.26 444.91 L 313.44 444.99 Q 314.52 445.32 314.82 445.51 Q 315.06 445.62 315.21 445.76 Q 315.36 445.91 315.58 446.24 Q 315.79 446.56 315.85 446.64 Q 315.85 446.78 315.94 447.17 Q 316.03 447.56 315.98 447.80 Q 315.93 448.05 315.60 448.10 Q 315.20 448.56 314.36 448.13 Q 314.17 448.07 313.78 447.79 Q 313.39 447.50 313.31 447.37 Q 312.58 447.34 311.55 447.45 Q 311.53 447.45 311.20 447.55 Q 310.88 447.64 310.77 447.61 Q 309.80 447.32 309.07 448.87 Q 308.34 450.42 307.96 452.55 Q 307.72 454.52 308.10 455.90 L 308.45 456.09 Q 309.45 456.36 311.13 456.63 Q 312.82 456.90 313.69 457.12 Q 315.36 457.66 316.06 458.31 Q 316.17 458.71 315.91 459.09 Q 315.66 459.47 315.20 459.49 Q 314.77 459.60 314.20 459.60 Q 313.47 459.60 312.55 459.30 Q 311.63 459.01 311.34 458.98 Q 310.39 458.79 309.77 458.79 Q 309.10 458.79 308.45 458.98 L 308.45 459.20 L 308.42 459.79 L 308.42 460.01 Q 308.31 461.11 308.70 462.84 Q 309.10 464.57 309.12 465.32 Q 309.12 465.51 308.93 465.69 Q 308.75 465.87 308.46 466.05 Q 308.18 466.24 308.10 466.30 Z M 320.72 466.54 Q 320.10 466.54 319.75 466.32 Q 319.37 465.92 319.14 465.46 Q 318.91 465.00 318.80 464.38 Q 318.69 463.76 318.67 463.42 Q 318.64 463.08 318.63 462.25 Q 318.61 461.41 318.61 461.22 Q 318.64 459.63 318.80 456.91 Q 318.96 454.20 319.02 453.04 Q 318.99 451.66 319.15 448.87 Q 319.32 446.07 319.23 444.43 Q 319.45 443.73 320.04 443.73 Q 320.80 443.73 321.29 444.59 Q 321.29 444.64 321.39 444.86 Q 321.50 445.07 321.53 445.24 L 321.64 447.18 Q 321.66 447.48 321.66 447.83 Q 321.58 449.50 321.39 452.01 Q 321.21 454.52 321.10 456.55 Q 320.99 458.57 320.99 460.55 Q 321.02 461.03 321.07 461.98 Q 321.12 462.92 321.17 463.37 Q 321.21 463.81 321.35 464.46 Q 321.50 465.11 321.80 465.65 Q 321.83 466.03 321.61 466.32 Q 321.26 466.54 320.72 466.54 Z M 328.67 475.88 Q 328.16 474.86 328.16 473.96 L 328.16 473.64 Q 328.75 472.37 330.32 468.51 Q 330.62 467.73 331.45 465.74 Q 332.29 463.76 332.67 462.81 Q 331.43 464.35 330.47 465.14 Q 329.51 465.92 328.62 465.92 Q 327.94 465.92 327.32 465.38 Q 326.08 464.79 325.32 462.30 Q 325.13 461.52 325.13 460.64 Q 325.13 459.76 325.23 459.09 Q 325.32 458.41 325.47 457.43 Q 325.62 456.44 325.67 455.79 Q 325.92 454.90 327.00 454.90 Q 327.46 454.90 327.89 455.12 Q 328.56 455.58 328.43 456.23 Q 328.40 456.42 327.89 457.17 Q 327.46 458.49 327.56 461.11 Q 327.59 461.95 328.06 462.56 Q 328.54 463.17 329.10 463.38 Q 329.48 463.35 329.81 463.21 Q 330.13 463.06 330.48 462.71 Q 330.83 462.36 331.03 462.13 Q 331.24 461.90 331.64 461.36 Q 332.05 460.82 332.21 460.60 Q 332.64 459.82 333.42 458.74 Q 334.21 457.66 334.40 457.01 Q 334.42 456.87 334.49 456.59 Q 334.56 456.31 334.61 456.13 Q 334.67 455.96 334.79 455.77 Q 334.91 455.58 335.07 455.47 Q 335.72 455.12 336.37 455.12 Q 337.12 455.12 337.64 455.63 Q 338.20 456.44 337.12 458.04 L 335.42 461.11 Q 335.31 461.25 335.11 461.67 Q 334.91 462.08 334.91 462.14 Q 334.80 462.44 334.29 463.96 Q 333.77 465.49 333.72 465.73 Q 333.40 466.62 332.55 468.97 Q 331.70 471.32 331.16 472.70 Q 331.05 472.91 330.99 473.06 Q 330.94 473.21 330.93 473.34 Q 330.91 473.48 330.86 473.90 Q 330.80 474.32 330.72 474.86 Q 330.67 475.58 330.21 475.88 Q 329.81 476.04 329.37 476.04 Q 328.94 476.04 328.67 475.88 Z M 342.48 453.85 Q 342.08 453.93 341.65 453.80 Q 341.21 453.66 340.54 453.26 Q 339.86 452.85 339.78 452.82 Q 339.32 452.53 339.18 452.00 Q 339.03 451.47 339.27 450.96 Q 339.46 450.48 339.92 450.20 Q 340.38 449.94 340.86 449.99 Q 341.02 450.02 341.11 449.98 Q 341.19 449.94 341.32 450.02 Q 341.46 450.10 341.52 450.11 Q 341.59 450.12 341.71 450.25 Q 341.83 450.37 341.89 450.41 Q 341.94 450.45 342.05 450.60 Q 342.16 450.75 342.20 450.80 Q 342.24 450.85 342.35 450.99 Q 342.46 451.12 342.48 451.18 Q 342.59 451.45 343.51 452.37 Q 343.67 452.58 343.64 453.04 Q 343.62 453.50 343.37 453.71 L 342.48 453.85 Z M 342.70 466.16 Q 341.97 466.30 341.51 465.84 Q 341.05 465.03 341.00 464.65 Q 340.94 464.33 340.84 463.23 Q 340.73 462.14 340.62 460.94 Q 340.51 459.74 340.48 459.52 Q 340.43 458.79 340.48 457.98 Q 340.89 457.28 341.83 457.47 Q 342.19 457.63 342.54 458.49 Q 342.54 459.06 342.63 459.68 Q 342.73 460.30 342.82 460.74 Q 342.91 461.17 343.10 461.87 Q 343.29 462.57 343.37 462.95 Q 343.37 463.17 343.33 463.64 Q 343.29 464.11 343.25 464.54 Q 343.21 464.97 343.21 465.00 Q 343.18 465.08 343.14 465.30 Q 343.10 465.51 343.06 465.65 Q 343.02 465.78 342.93 465.93 Q 342.83 466.08 342.70 466.16 Z M 357.45 466.08 Q 357.19 466.08 357.13 465.81 Q 357.08 465.73 356.77 465.20 Q 356.46 464.68 356.27 464.46 Q 355.75 462.68 355.59 461.03 Q 355.51 460.84 355.36 460.21 Q 355.21 459.57 355.08 459.33 Q 355.02 459.12 354.77 458.86 Q 354.51 458.60 354.35 458.60 Q 354.13 458.60 354.05 458.66 Q 352.27 460.17 350.81 462.41 Q 350.76 462.52 350.12 463.58 Q 349.49 464.65 349.27 465.14 Q 348.98 465.62 348.41 465.49 L 347.22 464.27 L 347.22 463.44 Q 347.36 462.73 347.52 460.71 Q 347.68 458.68 347.74 458.31 Q 347.74 458.17 347.60 457.36 Q 347.57 457.25 347.57 457.01 Q 347.57 456.58 347.86 456.31 Q 348.14 456.04 348.57 456.06 Q 349.44 456.06 349.79 456.60 Q 349.98 457.33 349.98 458.49 Q 349.98 458.87 349.92 459.41 Q 349.87 459.95 349.87 459.98 Q 350.00 459.87 350.38 459.40 Q 350.76 458.93 351.16 458.41 Q 351.57 457.90 351.65 457.79 Q 351.81 457.60 352.12 457.17 Q 352.43 456.74 352.69 456.47 Q 352.95 456.20 353.32 455.90 Q 353.89 455.44 354.84 455.39 Q 355.13 455.28 355.44 455.43 Q 355.75 455.58 356.11 456.02 Q 356.46 456.47 356.55 456.63 Q 356.64 456.79 356.97 457.31 Q 357.81 459.25 357.81 461.55 L 358.32 463.76 Q 358.32 463.84 358.49 464.30 Q 358.67 464.76 358.67 464.79 Q 358.72 465.51 358.32 465.81 Q 358.24 465.84 357.93 465.96 Q 357.62 466.08 357.45 466.08 Z M 367.86 476.12 Q 366.51 475.58 364.60 474.07 Q 364.00 473.78 363.69 473.59 Q 363.38 473.40 363.03 473.02 Q 362.68 472.64 362.55 472.18 Q 362.49 471.05 363.06 470.64 Q 363.68 470.16 364.30 470.16 Q 364.79 470.16 365.11 470.48 Q 365.25 470.62 365.81 471.31 Q 366.38 471.99 366.81 472.32 Q 367.24 472.64 367.76 472.72 Q 367.84 472.72 367.86 472.70 Q 368.67 472.40 369.01 471.71 Q 369.35 471.02 369.48 469.97 Q 369.62 468.92 369.78 468.51 Q 369.83 468.00 369.90 466.89 Q 369.97 465.78 370.00 465.27 Q 368.46 465.68 367.00 465.68 Q 365.68 465.68 364.27 465.35 Q 363.17 464.70 362.37 463.72 Q 361.57 462.73 361.55 461.57 Q 361.65 460.11 362.86 458.70 Q 364.06 457.28 365.35 456.63 Q 366.35 455.79 367.84 455.79 Q 369.75 455.79 370.64 457.12 Q 370.64 457.25 370.62 457.58 Q 370.62 458.87 370.32 458.87 Q 370.19 458.87 369.97 458.66 Q 369.65 458.47 368.21 458.31 Q 367.62 458.28 366.97 458.68 Q 366.32 459.09 365.89 459.56 Q 365.46 460.03 364.84 460.79 Q 364.70 460.98 364.62 461.06 Q 364.49 461.19 364.44 461.36 Q 364.38 461.52 364.44 461.68 Q 364.49 461.84 364.56 461.98 Q 364.62 462.11 364.77 462.26 Q 364.92 462.41 365.02 462.50 Q 365.11 462.60 365.27 462.75 Q 365.43 462.89 365.49 462.95 Q 366.30 463.27 367.27 463.27 Q 368.13 463.27 369.04 462.99 Q 369.94 462.71 370.67 462.06 Q 371.40 461.41 371.45 460.55 Q 371.70 457.33 372.83 456.95 L 372.91 456.95 Q 373.64 457.17 374.32 458.22 L 374.40 458.36 L 374.37 458.33 Q 374.43 459.52 373.66 461.64 Q 372.89 463.76 372.75 464.62 Q 371.89 467.49 371.48 470.73 Q 371.40 471.62 371.09 472.33 Q 370.78 473.05 370.08 474.24 Q 369.27 475.45 368.75 475.80 Q 368.35 476.04 367.86 476.12 Z M 380.38 466.51 Q 379.06 466.51 378.27 465.81 Q 377.89 465.51 377.60 465.11 Q 377.17 464.41 377.07 463.30 Q 376.98 462.19 377.08 461.38 L 377.08 461.19 Q 377.36 459.03 379.14 457.37 Q 380.92 455.71 383.05 456.06 Q 384.32 456.12 385.33 456.67 Q 386.35 457.23 386.45 458.06 L 386.48 457.95 L 386.51 456.87 L 386.62 453.58 L 386.64 452.50 Q 386.67 452.31 386.72 451.65 Q 386.78 450.99 386.81 450.68 Q 386.83 450.37 386.93 449.87 Q 387.02 449.37 387.16 448.96 Q 387.21 448.45 387.44 447.17 Q 387.67 445.88 387.67 445.83 Q 387.78 445.05 388.53 444.81 Q 388.97 444.83 389.48 445.09 Q 389.99 445.35 390.05 445.67 Q 390.31 446.32 390.42 447.75 L 390.40 449.94 Q 390.40 450.93 390.05 453.85 Q 389.96 454.42 389.53 455.47 Q 389.10 456.52 389.02 457.09 L 389.02 458.82 L 389.21 459.30 L 389.72 461.03 Q 389.88 461.68 390.13 462.29 Q 390.37 462.89 390.75 463.77 Q 391.12 464.65 391.26 464.95 Q 391.31 465.78 390.91 466.11 Q 390.80 466.27 390.61 466.27 Q 390.07 466.27 389.45 465.89 Q 388.18 464.62 387.48 461.63 Q 386.43 463.33 385.97 463.76 Q 384.02 465.76 382.38 466.30 Q 380.73 466.51 380.38 466.51 Z M 379.30 462.06 Q 379.08 462.95 379.68 463.46 Q 380.27 463.98 381.16 463.98 Q 381.78 463.98 382.22 463.76 Q 384.59 462.54 386.26 458.49 Q 386.21 458.66 385.85 458.63 Q 385.48 458.60 385.43 458.60 Q 383.48 458.33 382.03 458.47 Q 379.27 459.87 379.30 462.06 Z M 396.59 458.12 Q 397.29 456.71 398.19 455.88 Q 399.19 454.88 400.53 454.74 Q 401.86 454.58 403.05 455.06 Q 403.56 455.58 403.56 455.90 Q 403.56 456.52 403.45 456.63 Q 402.94 457.14 402.59 457.14 Q 402.56 457.14 402.20 457.09 Q 401.83 457.04 401.53 457.01 L 400.91 457.01 Q 399.75 457.17 399.08 457.95 L 398.48 458.71 Q 397.81 459.65 397.65 460.09 Q 397.59 460.22 397.36 460.74 Q 397.13 461.25 397.11 461.52 Q 397.05 463.11 397.29 463.92 Q 397.43 464.16 397.46 464.45 Q 397.48 464.73 397.47 464.91 Q 397.46 465.08 397.31 465.42 Q 397.16 465.76 397.09 465.87 Q 397.02 465.97 396.81 466.35 Q 396.57 466.62 396.30 466.62 Q 395.78 466.62 395.31 466.11 Q 394.84 465.60 394.59 464.87 L 394.57 461.76 Q 394.51 460.71 394.14 456.90 Q 394.03 455.77 394.14 455.01 Q 394.43 454.42 395.27 454.36 Q 395.65 454.31 395.92 454.50 Q 396.19 454.69 396.21 455.09 Q 396.24 455.20 396.31 455.33 Q 396.38 455.47 396.38 455.55 Q 396.38 456.14 396.46 458.01 L 396.59 458.12 Z M 409.59 466.19 Q 408.76 466.30 407.87 465.96 Q 406.98 465.62 406.46 465.00 Q 406.22 464.62 406.12 464.47 Q 406.03 464.33 405.84 463.99 Q 405.65 463.65 405.58 463.44 Q 405.52 463.22 405.44 462.92 Q 405.36 462.62 405.36 462.34 Q 405.36 462.06 405.44 461.76 Q 405.46 460.84 406.04 459.90 Q 406.62 458.95 407.22 458.39 Q 407.81 457.82 408.76 457.04 Q 408.95 456.90 409.03 456.82 Q 410.16 455.90 412.11 455.90 Q 412.51 455.90 414.67 456.12 Q 414.72 456.17 415.03 456.31 Q 415.35 456.44 415.48 456.59 Q 415.62 456.74 415.51 456.98 L 415.86 457.33 Q 416.45 457.68 416.61 458.01 Q 416.86 458.41 417.50 460.55 Q 417.56 460.76 418.03 462.00 Q 418.50 463.25 418.56 463.49 Q 419.23 464.73 419.26 465.14 L 419.39 465.57 Q 419.37 465.70 419.15 465.87 Q 418.94 466.03 418.91 466.05 Q 418.45 466.22 417.50 465.89 Q 417.32 465.81 417.17 465.69 Q 417.02 465.57 416.95 465.47 Q 416.88 465.38 416.71 465.11 Q 416.53 464.84 416.45 464.70 L 416.34 464.57 Q 416.05 463.87 415.43 462.08 Q 414.35 463.92 412.81 465.07 Q 411.27 466.22 409.59 466.19 Z M 409.46 463.68 Q 409.92 463.68 410.73 463.46 Q 412.05 462.98 413.13 461.76 Q 414.18 460.30 414.32 459.20 Q 414.32 459.12 414.43 458.56 Q 414.54 458.01 414.51 457.79 Q 413.97 457.93 412.96 457.99 Q 411.94 458.06 411.40 458.17 Q 410.70 458.28 409.97 458.83 Q 409.24 459.38 408.87 459.87 Q 408.49 460.36 407.84 461.25 Q 407.38 461.81 408.00 462.95 Q 408.49 463.68 409.46 463.68 Z M 425.75 466.40 Q 425.67 466.40 425.42 466.42 Q 425.16 466.43 425.01 466.43 Q 424.86 466.43 424.67 466.38 Q 424.49 466.32 424.35 466.24 Q 423.51 465.76 422.89 464.22 Q 422.62 463.57 422.50 462.84 Q 422.38 462.11 422.28 461.25 Q 422.19 460.38 422.08 459.84 L 421.97 459.09 Q 421.97 459.06 421.84 458.67 Q 421.70 458.28 421.70 458.22 Q 421.70 458.06 421.66 457.75 Q 421.62 457.44 421.61 457.25 Q 421.60 457.06 421.60 456.83 Q 421.60 456.60 421.64 456.44 Q 421.68 456.28 421.76 456.20 Q 422.24 455.71 423.27 455.50 Q 423.51 455.47 423.74 455.58 Q 423.97 455.69 424.30 456.00 Q 424.62 456.31 424.67 456.36 L 424.67 458.63 L 424.67 461.14 Q 424.73 461.95 424.94 463.19 Q 425.08 463.38 425.21 463.38 Q 425.48 463.22 425.74 462.85 Q 426.00 462.49 426.28 462.00 Q 426.56 461.52 426.73 461.30 L 426.86 460.98 Q 427.00 460.49 427.32 459.80 Q 427.64 459.12 427.83 458.93 Q 428.24 458.41 429.62 458.22 Q 429.70 458.22 429.76 458.36 Q 429.83 458.49 429.90 458.76 Q 429.97 459.03 430.01 459.28 Q 430.05 459.52 430.11 459.90 Q 430.18 460.28 430.21 460.46 Q 430.72 461.65 430.78 462.17 Q 430.83 462.54 431.18 463.14 L 431.69 462.73 Q 432.32 462.14 432.88 461.32 Q 433.45 460.49 434.12 459.36 Q 434.80 458.22 435.12 457.71 Q 435.23 457.44 436.07 456.01 Q 436.10 455.96 437.23 454.66 Q 437.39 454.50 437.61 454.47 Q 437.82 454.44 438.13 454.47 Q 438.44 454.50 438.58 454.47 Q 439.28 454.93 438.98 456.20 Q 437.04 459.28 435.61 461.30 Q 434.66 463.11 432.96 465.03 Q 432.61 465.43 431.98 465.68 Q 431.34 465.92 430.78 465.92 Q 429.26 464.84 428.51 462.60 Q 426.92 465.43 425.75 466.40 Z" fill="#8b86b5"/></g>
</svg>